<svg width="30" height="30" viewBox="0 0 30 30" fill="none" xmlns="http://www.w3.org/2000/svg">
<path fill-rule="evenodd" clip-rule="evenodd" d="M4.21875 6.09375C4.21875 6.09375 4.21875 5.3171 4.76792 4.76792C4.76792 4.76792 5.3171 4.21875 6.09375 4.21875H23.9062C23.9062 4.21875 24.6829 4.21875 25.2321 4.76792C25.2321 4.76792 25.7812 5.3171 25.7812 6.09375V23.9062C25.7812 23.9062 25.7812 24.6829 25.2321 25.2321C25.2321 25.2321 24.6829 25.7812 23.9062 25.7812H6.09375C6.09375 25.7812 5.3171 25.7812 4.76792 25.2321C4.76792 25.2321 4.21875 24.6829 4.21875 23.9062V6.09375ZM6.09375 6.09375V23.9062H23.9062V6.09375H6.09375Z" fill="black" fill-opacity="0.8"/>
<path d="M5.15625 15.9375H24.8438C25.3615 15.9375 25.7812 15.5178 25.7812 15C25.7812 14.4822 25.3615 14.0625 24.8438 14.0625H5.15625C4.63848 14.0625 4.21875 14.4822 4.21875 15C4.21875 15.5178 4.63848 15.9375 5.15625 15.9375Z" fill="black" fill-opacity="0.8"/>
<path d="M8.4375 15V24.8438C8.4375 25.3615 8.85723 25.7812 9.375 25.7812C9.89277 25.7812 10.3125 25.3615 10.3125 24.8438V15C10.3125 14.4822 9.89277 14.0625 9.375 14.0625C8.85723 14.0625 8.4375 14.4822 8.4375 15Z" fill="black" fill-opacity="0.8"/>
<path d="M12.1875 15V24.8438C12.1875 25.3615 12.6072 25.7812 13.125 25.7812C13.6428 25.7812 14.0625 25.3615 14.0625 24.8438V15C14.0625 14.4822 13.6428 14.0625 13.125 14.0625C12.6072 14.0625 12.1875 14.4822 12.1875 15Z" fill="black" fill-opacity="0.8"/>
<path d="M15.9375 15V24.8438C15.9375 25.3615 16.3572 25.7812 16.875 25.7812C17.3928 25.7812 17.8125 25.3615 17.8125 24.8438V15C17.8125 14.4822 17.3928 14.0625 16.875 14.0625C16.3572 14.0625 15.9375 14.4822 15.9375 15Z" fill="black" fill-opacity="0.8"/>
<path d="M19.6875 15V24.8438C19.6875 25.3615 20.1072 25.7812 20.625 25.7812C21.1428 25.7812 21.5625 25.3615 21.5625 24.8438V15C21.5625 14.4822 21.1428 14.0625 20.625 14.0625C20.1072 14.0625 19.6875 14.4822 19.6875 15Z" fill="black" fill-opacity="0.8"/>
</svg>
