<svg width="25" height="26" viewBox="0 0 25 26" fill="none" xmlns="http://www.w3.org/2000/svg">
<path fill-rule="evenodd" clip-rule="evenodd" d="M13.2107 9.26214L21.875 6.75L19.7184 15.5095L17.0282 12.9269L12.6886 17.4473C12.5413 17.6008 12.3377 17.6875 12.125 17.6875C11.9123 17.6875 11.7087 17.6008 11.5614 17.4473L8.375 14.1281L3.68858 19.0098C3.38978 19.321 2.89522 19.3311 2.58396 19.0323C2.2727 18.7335 2.26261 18.239 2.56142 17.9277L7.81142 12.459C7.95874 12.3055 8.16227 12.2187 8.375 12.2187C8.58773 12.2187 8.79126 12.3055 8.93858 12.459L12.125 15.7781L15.901 11.8448L13.2107 9.26214Z" fill="#1C1C1C"/>
</svg>
