<svg width="30" height="30" viewBox="0 0 30 30" fill="none" xmlns="http://www.w3.org/2000/svg">
<path fill-rule="evenodd" clip-rule="evenodd" d="M27.1875 20.7825L27.1875 20.7853C27.1875 20.7853 27.1841 21.2901 26.9288 21.7259C26.9288 21.7259 26.6729 22.1629 26.2325 22.413L15.9167 28.2157C15.9167 28.2157 15.4961 28.4585 15 28.4585C15 28.4585 14.5039 28.4585 14.0742 28.2105L3.77085 22.4149C3.77085 22.4149 3.32714 22.1629 3.07119 21.7259C3.07119 21.7259 2.81523 21.289 2.81251 20.7825L2.8125 9.2228C2.8125 9.2228 2.81523 8.71134 3.07119 8.27435C3.07119 8.27435 3.32714 7.83735 3.76752 7.58727L14.0833 1.78461C14.0833 1.78461 14.5039 1.54175 15 1.54175C15 1.54175 15.4961 1.54175 15.9258 1.78981L26.2292 7.58539C26.2292 7.58539 26.6729 7.83735 26.9288 8.27434C26.9288 8.27434 27.1848 8.71134 27.1875 9.21777L27.1875 20.7775L27.1875 20.7825ZM25.3125 9.22783L25.3125 20.7725C25.3125 20.7725 25.3124 20.7758 25.3109 20.7783C25.3109 20.7783 25.3104 20.7792 25.3094 20.7803C25.3087 20.7811 25.3077 20.7819 25.3066 20.7826L14.9999 26.5801L4.69022 20.7807C4.69022 20.7807 4.69042 20.7806 4.68909 20.7783C4.68909 20.7783 4.6875 20.7756 4.68749 20.7725L4.6875 9.2228C4.6875 9.2228 4.68809 9.2237 4.68909 9.22198C4.68909 9.22198 4.69068 9.21926 4.69342 9.21771L15.0001 3.42023L25.3098 9.21957C25.3099 9.21991 25.3103 9.221 25.3109 9.22198C25.3109 9.22198 25.3125 9.22469 25.3125 9.22783Z" fill="black" fill-opacity="0.8"/>
<path d="M9.82777 4.68701C9.68912 4.61054 9.53335 4.57043 9.375 4.57043L9.36297 4.5705C9.27893 4.57158 9.19542 4.58396 9.11468 4.60729C8.87582 4.67633 8.67417 4.83743 8.55408 5.05515C8.47761 5.19381 8.4375 5.34958 8.4375 5.50793L8.43758 5.51995C8.43866 5.60399 8.45103 5.6875 8.47437 5.76824C8.54341 6.00711 8.70451 6.20876 8.92223 6.32884L19.8047 12.331V17.8712C19.8047 18.389 20.2244 18.8087 20.7422 18.8087C21.26 18.8087 21.6797 18.389 21.6797 17.8712V11.7775C21.6797 11.436 21.494 11.1215 21.195 10.9565L9.82777 4.68701Z" fill="black" fill-opacity="0.8"/>
<path d="M15.1011 13.9243L4.33531 7.92338C4.19575 7.84559 4.03863 7.80476 3.87886 7.80476L3.87104 7.80479C3.787 7.80549 3.70343 7.81749 3.62259 7.84046C3.38342 7.90843 3.18104 8.06863 3.05998 8.2858C2.98219 8.42536 2.94136 8.58248 2.94136 8.74226L2.94139 8.75008C2.94209 8.83412 2.95409 8.91769 2.97707 8.99853C3.04504 9.2377 3.20523 9.44007 3.42241 9.56113L14.649 15.8189C14.9351 15.9784 15.2837 15.977 15.5685 15.8152L26.5841 9.55741C26.8003 9.43459 26.9589 9.23092 27.0249 8.99121C27.0472 8.91011 27.0585 8.82638 27.0585 8.74226L27.0583 8.71924C27.0545 8.56474 27.0125 8.41357 26.9362 8.27918C26.7696 7.98592 26.4583 7.80476 26.121 7.80476C26.1087 7.80476 26.0964 7.805 26.0841 7.80548C25.9344 7.81139 25.7883 7.8531 25.658 7.92711L15.1011 13.9243Z" fill="black" fill-opacity="0.8"/>
<path d="M14.0625 27.5078L14.0625 27.5157C14.0625 27.5703 14.0673 27.6248 14.0767 27.6786C14.1552 28.1237 14.5401 28.4494 14.9921 28.4532C15.0071 28.4533 15.0221 28.4531 15.0371 28.4525C15.27 28.4433 15.4911 28.3476 15.6573 28.1842C15.8346 28.0099 15.9354 27.7723 15.9375 27.5236L16.0429 15.0082L16.043 15.0001C16.043 14.9877 16.0427 14.9753 16.0422 14.963C16.033 14.7301 15.9374 14.509 15.7739 14.3428C15.5996 14.1655 15.362 14.0647 15.1134 14.0626L15.1055 14.0626C15.0931 14.0626 15.0807 14.0629 15.0683 14.0634C14.8354 14.0726 14.6144 14.1682 14.4482 14.3316C14.2709 14.506 14.1701 14.7436 14.168 14.9922L14.0625 27.5078Z" fill="black" fill-opacity="0.8"/>
</svg>
