<svg width="30" height="30" viewBox="0 0 30 30" fill="none" xmlns="http://www.w3.org/2000/svg">
<path d="M15 2.8125C12.5895 2.8125 10.2332 3.52728 8.22899 4.86646C6.22477 6.20564 4.66267 8.10907 3.74022 10.336C2.81778 12.563 2.57643 15.0135 3.04668 17.3777C3.51694 19.7418 4.67769 21.9134 6.38214 23.6179C8.08659 25.3223 10.2582 26.4831 12.6223 26.9533C14.9865 27.4236 17.437 27.1822 19.664 26.2598C21.8909 25.3373 23.7944 23.7752 25.1335 21.771C26.4727 19.7668 27.1875 17.4105 27.1875 15C27.1813 11.7696 25.8953 8.67324 23.611 6.38898C21.3268 4.10472 18.2304 2.81869 15 2.8125ZM16.4063 20.625H15.9375V21.5625C15.9375 21.8111 15.8387 22.0496 15.6629 22.2254C15.4871 22.4012 15.2486 22.5 15 22.5C14.7514 22.5 14.5129 22.4012 14.3371 22.2254C14.1613 22.0496 14.0625 21.8111 14.0625 21.5625V20.625H12.1875C11.9389 20.625 11.7004 20.5262 11.5246 20.3504C11.3488 20.1746 11.25 19.9361 11.25 19.6875C11.25 19.4389 11.3488 19.2004 11.5246 19.0246C11.7004 18.8488 11.9389 18.75 12.1875 18.75H16.4063C16.7792 18.75 17.1369 18.6018 17.4006 18.3381C17.6643 18.0744 17.8125 17.7167 17.8125 17.3438C17.8125 16.9708 17.6643 16.6131 17.4006 16.3494C17.1369 16.0857 16.7792 15.9375 16.4063 15.9375H13.5938C12.7235 15.9375 11.8889 15.5918 11.2736 14.9764C10.6582 14.3611 10.3125 13.5265 10.3125 12.6562C10.3125 11.786 10.6582 10.9514 11.2736 10.3361C11.8889 9.7207 12.7235 9.375 13.5938 9.375H14.0625V8.4375C14.0625 8.18886 14.1613 7.9504 14.3371 7.77459C14.5129 7.59877 14.7514 7.5 15 7.5C15.2486 7.5 15.4871 7.59877 15.6629 7.77459C15.8387 7.9504 15.9375 8.18886 15.9375 8.4375V9.375H17.8125C18.0611 9.375 18.2996 9.47377 18.4754 9.64959C18.6512 9.8254 18.75 10.0639 18.75 10.3125C18.75 10.5611 18.6512 10.7996 18.4754 10.9754C18.2996 11.1512 18.0611 11.25 17.8125 11.25H13.5938C13.2208 11.25 12.8631 11.3982 12.5994 11.6619C12.3357 11.9256 12.1875 12.2833 12.1875 12.6562C12.1875 13.0292 12.3357 13.3869 12.5994 13.6506C12.8631 13.9143 13.2208 14.0625 13.5938 14.0625H16.4063C17.2765 14.0625 18.1111 14.4082 18.7265 15.0236C19.3418 15.6389 19.6875 16.4735 19.6875 17.3438C19.6875 18.214 19.3418 19.0486 18.7265 19.6639C18.1111 20.2793 17.2765 20.625 16.4063 20.625Z" fill="black" fill-opacity="0.8"/>
</svg>
