<svg width="30" height="30" viewBox="0 0 30 30" fill="none" xmlns="http://www.w3.org/2000/svg">
<path d="M10.3125 6.5625V23.4375C10.3125 23.9553 10.7322 24.375 11.25 24.375C11.7677 24.375 12.1875 23.9553 12.1875 23.4375V6.5625C12.1875 6.04473 11.7677 5.625 11.25 5.625C10.7322 5.625 10.3125 6.04473 10.3125 6.5625Z" fill="black" fill-opacity="0.8"/>
<path fill-rule="evenodd" clip-rule="evenodd" d="M1.87501 22.5V19.5937C1.87501 19.5937 1.87131 18.9265 2.29782 18.4067C2.29782 18.4067 2.72434 17.8869 3.38452 17.7592C3.38452 17.7592 4.34626 17.5549 4.97585 16.7776C4.97585 16.7776 5.60543 16.0003 5.60543 15C5.60543 15 5.60543 13.9997 4.97585 13.2224C4.97585 13.2224 4.34626 12.4451 3.36779 12.2374C3.36779 12.2374 2.72434 12.1131 2.29782 11.5933C2.29782 11.5933 1.87131 11.0735 1.87502 10.4011L1.87501 7.5C1.87501 7.5 1.87501 6.72335 2.42418 6.17417C2.42418 6.17417 2.97336 5.625 3.75001 5.625H26.25C26.25 5.625 27.0267 5.625 27.5758 6.17418C27.5758 6.17418 28.125 6.72335 28.125 7.5V10.4063C28.125 10.4063 28.1287 11.0735 27.7022 11.5933C27.7022 11.5933 27.2757 12.1131 26.6155 12.2408C26.6155 12.2408 25.6538 12.4451 25.0242 13.2224C25.0242 13.2224 24.3946 13.9997 24.3946 15C24.3946 15 24.3946 16.0003 25.0242 16.7776C25.0242 16.7776 25.6538 17.5549 26.6322 17.7626C26.6322 17.7626 27.2757 17.8869 27.7022 18.4067C27.7022 18.4067 28.1287 18.9265 28.125 19.5989L28.125 22.5C28.125 22.5 28.125 23.2767 27.5758 23.8258C27.5758 23.8258 27.0267 24.375 26.25 24.375H3.75001C3.75001 24.375 2.97336 24.375 2.42418 23.8258C2.42418 23.8258 1.87501 23.2767 1.87501 22.5ZM3.75001 22.5H26.25L26.25 19.5979C26.25 19.5979 26.2475 19.5977 26.2428 19.5967C26.2428 19.5967 24.6147 19.2511 23.5672 17.9577C23.5672 17.9577 22.5196 16.6644 22.5196 15C22.5196 15 22.5196 13.3356 23.5672 12.0423C23.5672 12.0423 24.6117 10.7527 26.25 10.4019V7.5H3.75001L3.75 10.4021C3.75 10.4021 3.75256 10.4023 3.75723 10.4033C3.75723 10.4033 5.3853 10.7489 6.43286 12.0423C6.43286 12.0423 7.48043 13.3356 7.48043 15C7.48043 15 7.48043 16.6644 6.43287 17.9577C6.43287 17.9577 5.38833 19.2473 3.75001 19.5981V22.5Z" fill="black" fill-opacity="0.8"/>
</svg>
