<svg width="150" height="150" viewBox="0 0 150 150" fill="none" xmlns="http://www.w3.org/2000/svg">
<path d="M126.562 28.125H23.4375C20.8487 28.125 18.75 30.2237 18.75 32.8125C18.75 35.4013 20.8487 37.5 23.4375 37.5H126.562C129.151 37.5 131.25 35.4013 131.25 32.8125C131.25 30.2237 129.151 28.125 126.562 28.125Z" fill="white"/>
<path d="M56.25 60.9375V98.4375C56.25 101.026 58.3487 103.125 60.9375 103.125C63.5263 103.125 65.625 101.026 65.625 98.4375V60.9375C65.625 58.3487 63.5263 56.25 60.9375 56.25C58.3487 56.25 56.25 58.3487 56.25 60.9375Z" fill="white"/>
<path d="M84.375 60.9375V98.4375C84.375 101.026 86.4737 103.125 89.0625 103.125C91.6513 103.125 93.75 101.026 93.75 98.4375V60.9375C93.75 58.3487 91.6513 56.25 89.0625 56.25C86.4737 56.25 84.375 58.3487 84.375 60.9375Z" fill="white"/>
<path d="M37.5 121.875V32.8125C37.5 30.2237 35.4013 28.125 32.8125 28.125C30.2237 28.125 28.125 30.2237 28.125 32.8125V121.875C28.125 125.758 30.8709 128.504 30.8709 128.504C33.6167 131.25 37.5 131.25 37.5 131.25H112.5C116.383 131.25 119.129 128.504 119.129 128.504C121.875 125.758 121.875 121.875 121.875 121.875V32.8125C121.875 30.2237 119.776 28.125 117.188 28.125C114.599 28.125 112.5 30.2237 112.5 32.8125V121.875H37.5Z" fill="white"/>
<path d="M50.9938 13.4938C46.875 17.6126 46.875 23.4375 46.875 23.4375V32.8125C46.875 35.4013 48.9737 37.5 51.5625 37.5C54.1513 37.5 56.25 35.4013 56.25 32.8125V23.4375C56.25 21.4959 57.6229 20.1229 57.6229 20.1229C58.9959 18.75 60.9375 18.75 60.9375 18.75H89.0625C91.0041 18.75 92.3771 20.1229 92.3771 20.1229C93.75 21.4959 93.75 23.4375 93.75 23.4375V32.8125C93.75 35.4013 95.8487 37.5 98.4375 37.5C101.026 37.5 103.125 35.4013 103.125 32.8125V23.4375C103.125 17.6126 99.0062 13.4938 99.0062 13.4938C94.8874 9.375 89.0625 9.375 89.0625 9.375H60.9375C55.1126 9.375 50.9938 13.4938 50.9938 13.4938Z" fill="white"/>
</svg>
