<svg width="150" height="150" viewBox="0 0 150 150" fill="none" xmlns="http://www.w3.org/2000/svg">
<path d="M131.25 70.3125V121.875C131.25 124.361 130.262 126.746 128.504 128.504C126.746 130.262 124.361 131.25 121.875 131.25H28.125C25.6386 131.25 23.254 130.262 21.4959 128.504C19.7377 126.746 18.75 124.361 18.75 121.875V28.125C18.75 25.6386 19.7377 23.254 21.4959 21.4959C23.254 19.7377 25.6386 18.75 28.125 18.75H79.6875C80.9307 18.75 82.123 19.2439 83.0021 20.1229C83.8811 21.002 84.375 22.1943 84.375 23.4375C84.375 24.6807 83.8811 25.873 83.0021 26.7521C82.123 27.6311 80.9307 28.125 79.6875 28.125H28.125V121.875H121.875V70.3125C121.875 69.0693 122.369 67.877 123.248 66.9979C124.127 66.1189 125.319 65.625 126.562 65.625C127.806 65.625 128.998 66.1189 129.877 66.9979C130.756 67.877 131.25 69.0693 131.25 70.3125ZM134.59 40.8398L78.3398 97.0898C77.4469 97.9604 76.2471 98.4445 75 98.4375H56.25C55.0068 98.4375 53.8145 97.9436 52.9354 97.0646C52.0564 96.1855 51.5625 94.9932 51.5625 93.75V75C51.5555 73.7529 52.0396 72.5531 52.9102 71.6602L109.16 15.4102C110.049 14.5299 111.249 14.0361 112.5 14.0361C113.751 14.0361 114.951 14.5299 115.84 15.4102L134.59 34.1602C135.47 35.0489 135.964 36.2492 135.964 37.5C135.964 38.7508 135.47 39.9511 134.59 40.8398ZM124.629 37.5L112.5 25.3711L105.059 32.8125L117.188 44.9414L124.629 37.5Z" fill="white"/>
</svg>
