<svg width="25" height="27" viewBox="0 0 25 27" fill="none" xmlns="http://www.w3.org/2000/svg">
<path fill-rule="evenodd" clip-rule="evenodd" d="M24.375 19.2408L24.375 19.2435C24.375 19.2435 24.3716 19.7484 24.1163 20.1842C24.1163 20.1842 23.8604 20.6212 23.42 20.8713L13.1042 26.6739C13.1042 26.6739 12.6836 26.9168 12.1875 26.9168C12.1875 26.9168 11.6914 26.9168 11.2617 26.6687L0.958349 20.8732C0.958349 20.8732 0.51464 20.6212 0.258687 20.1842C0.258687 20.1842 0.00273339 19.7472 1.35228e-05 19.2408L0 7.68105C0 7.68105 0.00273351 7.16959 0.258687 6.7326C0.258687 6.7326 0.51464 6.29561 0.955019 6.04552L11.2708 0.242859C11.2708 0.242859 11.6914 0 12.1875 0C12.1875 0 12.6836 0 13.1133 0.248062L23.4167 6.04364C23.4167 6.04364 23.8604 6.2956 24.1163 6.7326C24.1163 6.7326 24.3723 7.16959 24.375 7.67602L24.375 19.2357L24.375 19.2408ZM22.5 7.68609L22.5 19.2307C22.5 19.2307 22.4999 19.2341 22.4984 19.2366C22.4984 19.2366 22.4979 19.2375 22.4969 19.2386C22.4962 19.2393 22.4952 19.2402 22.4941 19.2408L12.1874 25.0383L1.87772 19.239C1.87772 19.239 1.87792 19.2388 1.87659 19.2366C1.87659 19.2366 1.875 19.2339 1.87499 19.2307L1.875 7.68105C1.875 7.68105 1.87559 7.68195 1.87659 7.68023C1.87659 7.68023 1.87818 7.67752 1.88092 7.67596L12.1876 1.87849L22.4973 7.67782C22.4974 7.67816 22.4978 7.67925 22.4984 7.68023C22.4984 7.68023 22.5 7.68295 22.5 7.68609Z" fill="black" fill-opacity="0.8"/>
<path d="M7.01527 3.14526C6.87662 3.06879 6.72085 3.02868 6.5625 3.02868L6.55047 3.02876C6.46643 3.02983 6.38292 3.04221 6.30218 3.06554C6.06332 3.13459 5.86167 3.29569 5.74158 3.51341C5.66511 3.65206 5.625 3.80783 5.625 3.96618L5.62508 3.97821C5.62616 4.06224 5.63853 4.14576 5.66187 4.2265C5.73091 4.46536 5.89201 4.66701 6.10973 4.78709L16.9922 10.7893V16.3295C16.9922 16.8472 17.4119 17.267 17.9297 17.267C18.4475 17.267 18.8672 16.8472 18.8672 16.3295V10.2357C18.8672 9.89421 18.6815 9.57972 18.3825 9.41479L7.01527 3.14526Z" fill="black" fill-opacity="0.8"/>
<path d="M12.2886 12.3826L1.52281 6.38163C1.38325 6.30384 1.22613 6.26301 1.06636 6.26301L1.05854 6.26304C0.974496 6.26374 0.89093 6.27574 0.810087 6.29872C0.570917 6.36668 0.368542 6.52688 0.247484 6.74406C0.169694 6.88361 0.12886 7.04074 0.12886 7.20051L0.128893 7.20833C0.129594 7.29237 0.141593 7.37594 0.164568 7.45678C0.232536 7.69595 0.39273 7.89833 0.609909 8.01938L11.8365 14.2772C12.1226 14.4367 12.4712 14.4353 12.756 14.2735L23.7716 8.01566C23.9878 7.89284 24.1464 7.68918 24.2124 7.44946C24.2347 7.36836 24.246 7.28463 24.246 7.20051L24.2458 7.1775C24.242 7.02299 24.2 6.87182 24.1237 6.73743C23.9571 6.44418 23.6458 6.26301 23.3085 6.26301C23.2962 6.26301 23.2839 6.26325 23.2716 6.26374C23.1219 6.26964 22.9758 6.31135 22.8455 6.38536L12.2886 12.3826Z" fill="black" fill-opacity="0.8"/>
<path d="M11.25 25.9661L11.25 25.974C11.25 26.0286 11.2548 26.0831 11.2642 26.1368C11.3427 26.5819 11.7276 26.9076 12.1796 26.9115C12.1946 26.9116 12.2096 26.9114 12.2246 26.9108C12.4575 26.9015 12.6786 26.8059 12.8448 26.6425C13.0221 26.4681 13.1229 26.2305 13.125 25.9819L13.2304 13.4665L13.2305 13.4584C13.2305 13.446 13.2302 13.4336 13.2297 13.4212C13.2205 13.1883 13.1249 12.9672 12.9614 12.8011C12.7871 12.6238 12.5495 12.523 12.3009 12.5209L12.293 12.5209C12.2806 12.5209 12.2682 12.5211 12.2558 12.5216C12.0229 12.5308 11.8019 12.6265 11.6357 12.7899C11.4584 12.9642 11.3576 13.2018 11.3555 13.4505L11.25 25.9661Z" fill="black" fill-opacity="0.8"/>
</svg>
