<?xml version="1.0" encoding="utf-8"?>
<!-- Svg Vector Icons : http://www.onlinewebfonts.com/icon -->
<!DOCTYPE svg PUBLIC "-//W3C//DTD SVG 1.1//EN" "http://www.w3.org/Graphics/SVG/1.1/DTD/svg11.dtd">
<svg version="1.1" xmlns="http://www.w3.org/2000/svg" xmlns:xlink="http://www.w3.org/1999/xlink" x="0px" y="0px" viewBox="0 0 1000 1000" enable-background="new 0 0 1000 1000" xml:space="preserve">
<metadata> Svg Vector Icons : http://www.onlinewebfonts.com/icon </metadata>
<g><g transform="translate(0.000000,511.000000) scale(0.100000,-0.100000)"><path d="M4681.2,4996c-1545.7-93-2998.5-958.8-3833.4-2287.6c-759.3-1206.8-953-2729.3-523-4077.4C574.7-2147.8,964-2790.8,1533.5-3362.3c389.3-391.3,809.7-691.5,1313.3-937.5c478.4-236.3,989.8-389.3,1543.8-468.8c278.9-38.7,1016.9-32.9,1307.5,11.6c588.9,89.1,1216.4,302.2,1704.6,577.2c414.5,234.4,722.5,472.6,1084.7,836.8c772.9,776.7,1233.9,1720.1,1386.9,2839.7c32.9,238.3,34.9,982.1,1.9,1210.6c-89.1,619.8-249.9,1135.1-519.1,1652.3c-716.7,1385-2055.2,2349.6-3589.3,2589.8c-174.3,27.1-732.2,71.7-815.5,63.9C4936.8,5013.4,4814.8,5005.7,4681.2,4996z M5550.9,3979c1330.7-193.7,2481.3-1057.6,3023.7-2268.2c480.4-1077,457.1-2312.8-67.8-3354.9c-383.5-765.1-995.6-1375.3-1764.6-1760.7c-1305.6-654.7-2893.9-511.4-4075.5,366.1c-201.4,149.2-544.3,478.4-703.1,676c-255.7,317.7-497.8,741.9-639.2,1123.5C1066.7-543.9,1022.1,320,1206.1,1048.3C1595.5,2597.9,2872,3748.5,4456.5,3981C4708.3,4017.8,5297.1,4017.8,5550.9,3979z"/><path d="M2647.3,2171.8c-114.3-34.9-172.4-81.4-215-170.4l-46.5-93v-1598c0-1505.1,1.9-1603.8,34.9-1691c98.8-255.7,441.7-275.1,575.3-32.9l48.4,87.2l5.8,695.4l5.8,695.4l207.3-9.7c408.7-19.4,482.3-93,955-980.1c251.8-474.6,331.2-592.7,437.8-635.4c193.7-81.3,424.2,46.5,445.5,251.8c29.1,242.1-368,991.8-693.5,1311.4l-149.1,147.2l156.9,62c288.6,110.4,490.1,304.1,579.2,557.9c36.8,112.3,44.5,170.5,44.5,383.5c0,294.4-36.8,433.9-170.4,631.5c-143.3,217-370,346.7-676,385.5C4010.9,2191.2,2720.9,2193.1,2647.3,2171.8z M3976.1,1586.8c211.1-36.8,339-164.6,379.7-377.7c44.5-240.2-52.3-441.6-253.8-528.8c-125.9-54.2-418.4-83.3-767.1-75.5l-271.2,5.8l-5.8,499.7l-3.9,497.8H3457C3679.7,1608.1,3912.2,1598.4,3976.1,1586.8z"/><path d="M5752.3,1182c-34.9-19.4-77.5-65.9-96.8-100.7c-32.9-60-34.9-168.5-38.7-1739.4c-3.9-1539.9-1.9-1683.3,29.1-1770.4c44.6-127.8,106.5-172.4,246-172.4c129.8,0,189.8,36.8,249.9,153c38.7,71.7,40.7,112.3,46.5,681.8c3.9,331.2,11.6,604.4,19.4,604.4c7.8-1.9,44.6-40.7,81.4-89.1c389.3-501.7,1142.8-424.2,1487.6,153c145.3,240.2,215,546.2,216.9,933.6c0,337-46.5,559.8-164.6,800c-222.8,451.3-648.9,668.3-1082.8,555.9c-156.9-40.7-271.2-114.3-420.3-267.3l-127.9-131.7l-11.6,116.2c-17.4,199.5-122,311.9-288.6,311.9C5849.2,1220.7,5789.1,1205.2,5752.3,1182z M6995.9,651.2c255.7-118.1,395.2-459.1,371.9-902.6c-23.2-428.1-187.9-709-455.2-774.8c-98.8-23.3-232.5-3.9-331.3,46.5c-73.6,40.7-205.3,184-251.8,277c-151.1,302.2-127.8,881.3,46.5,1142.8C6529.1,672.6,6773.1,755.8,6995.9,651.2z"/></g></g>
</svg>