<svg width="30" height="30" viewBox="0 0 30 30" fill="none" xmlns="http://www.w3.org/2000/svg">
<path fill-rule="evenodd" clip-rule="evenodd" d="M3.75 5.625C3.75 5.625 3.75 4.84835 4.29917 4.29917C4.29917 4.29917 4.84835 3.75 5.625 3.75H24.375C24.375 3.75 25.1517 3.75 25.7008 4.29917C25.7008 4.29917 26.25 4.84835 26.25 5.625V24.375C26.25 24.375 26.25 25.1517 25.7008 25.7008C25.7008 25.7008 25.1517 26.25 24.375 26.25H5.625C5.625 26.25 4.84835 26.25 4.29917 25.7008C4.29917 25.7008 3.75 25.1517 3.75 24.375V5.625ZM5.625 5.625V24.375H24.375V5.625H5.625Z" fill="#1C1C1C"/>
<path d="M19.6875 2.8125V6.5625C19.6875 7.08027 20.1072 7.5 20.625 7.5C21.1428 7.5 21.5625 7.08027 21.5625 6.5625V2.8125C21.5625 2.29473 21.1428 1.875 20.625 1.875C20.1072 1.875 19.6875 2.29473 19.6875 2.8125Z" fill="#1C1C1C"/>
<path d="M8.4375 2.8125V6.5625C8.4375 7.08027 8.85723 7.5 9.375 7.5C9.89277 7.5 10.3125 7.08027 10.3125 6.5625V2.8125C10.3125 2.29473 9.89277 1.875 9.375 1.875C8.85723 1.875 8.4375 2.29473 8.4375 2.8125Z" fill="#1C1C1C"/>
<path d="M4.6875 11.25H25.3125C25.8303 11.25 26.25 10.8303 26.25 10.3125C26.25 9.79473 25.8303 9.375 25.3125 9.375H4.6875C4.16973 9.375 3.75 9.79473 3.75 10.3125C3.75 10.8303 4.16973 11.25 4.6875 11.25Z" fill="#1C1C1C"/>
<path d="M18.4751 15.6633C18.6509 15.4874 18.75 15.2486 18.75 15C18.75 14.7514 18.6512 14.5129 18.4754 14.3371L18.4673 14.3291C18.2923 14.1585 18.0569 14.0625 17.8125 14.0625C17.7844 14.0625 17.7563 14.0638 17.7283 14.0663C17.5096 14.086 17.3048 14.1819 17.1496 14.3371L11.5249 19.9617C11.3491 20.1376 11.25 20.3764 11.25 20.625C11.25 20.64 11.2504 20.655 11.2511 20.67C11.2623 20.9028 11.3598 21.1231 11.5246 21.2879C11.7004 21.4637 11.9389 21.5625 12.1875 21.5625C12.4361 21.5625 12.6746 21.4637 12.8504 21.2879L18.4751 15.6633Z" fill="#1C1C1C"/>
<path d="M12.8504 14.3371C12.6746 14.1613 12.4361 14.0625 12.1875 14.0625C11.9389 14.0625 11.7004 14.1613 11.5246 14.3371C11.3488 14.5129 11.25 14.7514 11.25 15C11.25 15.2486 11.3488 15.4871 11.5246 15.6629L17.1491 21.2874C17.3249 21.4632 17.5639 21.5625 17.8125 21.5625C18.0611 21.5625 18.2996 21.4637 18.4754 21.2879C18.6512 21.1121 18.75 20.8736 18.75 20.625C18.75 20.3764 18.6512 20.1379 18.4754 19.9621L12.8504 14.3371Z" fill="#1C1C1C"/>
</svg>
