<svg width="14" height="10" viewBox="0 0 14 10" fill="none" xmlns="http://www.w3.org/2000/svg">
<path d="M1.03934 4.43938L1.03911 4.43915C0.924956 4.325 0.770132 4.26087 0.608696 4.26087C0.44726 4.26087 0.292435 4.325 0.178283 4.43915C0.0641302 4.5533 0 4.70813 0 4.86957C3.62811e-08 4.87932 0.00023434 4.88907 0.000702728 4.8988C0.00797175 5.04995 0.0712808 5.19298 0.178283 5.29998L0.178511 5.30021L4.43915 9.56085C4.67686 9.79856 5.06227 9.79856 5.29998 9.56085L13.8217 1.03911C13.9359 0.924956 14 0.770132 14 0.608696C14 0.44726 13.9359 0.292436 13.8217 0.178283C13.7076 0.0641303 13.5527 0 13.3913 0C13.2299 0 13.075 0.0641303 12.9609 0.178283L4.86957 8.26961L1.03934 4.43938Z" fill="#FCF3F3"/>
</svg>
